Coordinates
version=1
nRows=6
nColumns=63
inDegrees=yes

Units are S.I. units (second, meters, Newtons, ...)
If the header above contains a line with 'inDegrees', this indicates whether rotational values are in degrees (yes) or radians (no).

endheader
time	pelvis_tilt	pelvis_list	pelvis_rotation	pelvis_tx	pelvis_ty	pelvis_tz	hip_flexion_r	hip_adduction_r	hip_rotation_r	knee_angle_r	knee_angle_r_beta	ankle_angle_r	subtalar_angle_r	mtp_angle_r	hip_flexion_l	hip_adduction_l	hip_rotation_l	knee_angle_l	knee_angle_l_beta	ankle_angle_l	subtalar_angle_l	mtp_angle_l	L5_S1_Flex_Ext	L5_S1_Lat_Bending	L5_S1_axial_rotation	L4_L5_Flex_Ext	L4_L5_Lat_Bending	L4_L5_axial_rotation	L3_L4_Flex_Ext	L3_L4_Lat_Bending	L3_L4_axial_rotation	L2_L3_Flex_Ext	L2_L3_Lat_Bending	L2_L3_axial_rotation	L1_L2_Flex_Ext	L1_L2_Lat_Bending	L1_L2_axial_rotation	L1_T12_Flex_Ext	L1_T12_Lat_Bending	L1_T12_axial_rotation	Abs_r3	Abs_r2	Abs_r1	Abs_t1	Abs_t2	neck_flexion	neck_bending	neck_rotation	arm_flex_r	arm_add_r	arm_rot_r	elbow_flex_r	pro_sup_r	wrist_flex_r	wrist_dev_r	arm_flex_l	arm_add_l	arm_rot_l	elbow_flex_l	pro_sup_l	wrist_flex_l	wrist_dev_l
      2.03333333	     -2.40299955	      3.60740540	     95.73472456	      0.26230852	      0.78556495	      0.65510472	     -3.91122820	     -3.12878857	    -13.45681902	      9.87690558	      0.17238452	     34.02782121	     15.94003806	      0.00000000	     -1.64631812	      1.67767237	      7.69822107	      8.36488474	      0.14599478	     32.31725906	      4.96642924	      0.00000000	     -0.07251995	     -0.39342621	     -2.95941094	     -0.13467680	     -0.52325686	     -3.14437413	     -0.11914303	     -0.95657648	     -3.14437413	     -0.08288305	     -0.95657648	     -2.58948457	     -0.06734203	     -0.80227472	     -2.40452139	     -0.04143790	     -0.60941720	     -2.21955821	     -0.51800275	     -4.45051595	    -16.45935584	      0.00000000	      0.00000000	     -0.57541166	     31.08728692	    -26.54474505	     61.18248605	     -1.06312238	      0.44591618	    129.69251069	     87.59269367	    -12.79122753	     33.64315854	     20.54430133	     -7.16726739	    171.17531223	      0.21424577	      2.72057585	    -27.11937704	    -10.29338393
      2.05000000	     -2.30740213	      3.53049411	     95.35052007	      0.26314434	      0.78560333	      0.65510104	     -3.83977221	     -3.03351275	    -13.16999627	      9.67381288	      0.16883989	     33.74344008	     16.06600206	      0.00000000	     -1.54817598	      1.59929759	      7.50918109	      8.46319498	      0.14771062	     32.26938973	      4.61271312	      0.00000000	     -0.07545521	     -0.39523720	     -2.89282902	     -0.14012786	     -0.52566548	     -3.07363084	     -0.12396536	     -0.96097973	     -3.07363084	     -0.08623776	     -0.96097973	     -2.53122540	     -0.07006770	     -0.80596770	     -2.35042358	     -0.04311510	     -0.61222242	     -2.16962177	     -0.53896899	     -4.47100226	    -16.08904718	      0.00000000	      0.00000000	     -1.59642376	     31.31814775	    -26.59925318	     60.92118581	     -1.68953743	      0.66948448	    129.96369136	     87.52166608	    -12.92368525	     33.44150772	     20.70327180	     -6.83527889	    169.98168935	      0.21142609	      2.05117931	    -27.42392094	    -10.33681086
      2.06666667	     -2.07318697	      3.38951033	     94.45874523	      0.26448581	      0.78538651	      0.65510009	     -3.53511612	     -2.82136709	    -11.81847478	      9.55029079	      0.16668402	     33.45207880	     15.54502422	      0.00000000	     -1.52975296	      1.42878460	      7.39488425	      8.28680256	      0.14463199	     31.96694863	      3.56013889	      0.00000000	     -0.06334059	     -0.36869611	     -2.79456115	     -0.11762981	     -0.49036583	     -2.96922122	     -0.10406226	     -0.89644772	     -2.96922122	     -0.07239196	     -0.89644772	     -2.44524101	     -0.05881807	     -0.75184511	     -2.27058093	     -0.03619281	     -0.57111027	     -2.09592086	     -0.45243551	     -4.17076414	    -15.54251075	      0.00000000	      0.00000000	     -2.58449391	     31.13832689	    -25.90177740	     60.95241591	     -2.04543267	      1.20461323	    130.02686868	     87.45773564	    -13.65678740	     33.15671596	     20.53854531	     -6.55521929	    165.58936982	      0.22299729	      1.84181967	    -26.92232416	    -12.08075347
      2.08333333	     -1.88560370	      3.30110963	     93.81044983	      0.26570817	      0.78531061	      0.65520914	     -3.38867623	     -2.61102543	    -10.70805984	      9.25191103	      0.16147631	     33.19325489	     15.03398517	      0.00000000	     -1.44074314	      1.27330894	      7.37847997	      8.36706043	      0.14603275	     31.73314447	      2.66140774	      0.00000000	     -0.05316118	     -0.35661067	     -2.70661250	     -0.09872564	     -0.47429218	     -2.87577579	     -0.08733851	     -0.86706317	     -2.87577579	     -0.06075792	     -0.86706317	     -2.36828594	     -0.04936548	     -0.72720047	     -2.19912266	     -0.03037630	     -0.55238992	     -2.02995938	     -0.37972503	     -4.03405117	    -15.05336676	      0.00000000	      0.00000000	     -3.20671309	     31.52497451	    -25.31864726	     60.92849471	     -2.56026037	      1.21332266	    130.40406439	     87.46952405	    -13.41903680	     33.06329502	     20.49372543	     -6.28441937	    163.04300291	      0.23090383	      1.57860113	    -25.96374924	    -12.74660364
      2.10000000	     -1.71931740	      3.24167943	     93.20047058	      0.26694673	      0.78525263	      0.65560658	     -3.23238630	     -2.46157051	    -10.08523644	      9.03289043	      0.15765368	     33.11101367	     15.14814328	      0.00000000	     -1.27963188	      1.11261885	      7.02114888	      8.64530433	      0.15088903	     31.68210346	      2.24769731	      0.00000000	     -0.04713779	     -0.35473081	     -2.62733994	     -0.08753959	     -0.47179198	     -2.79154868	     -0.07744268	     -0.86249249	     -2.79154868	     -0.05387378	     -0.86249249	     -2.29892244	     -0.04377215	     -0.72336707	     -2.13471370	     -0.02693453	     -0.54947802	     -1.97050495	     -0.33670053	     -4.01278587	    -14.61247652	      0.00000000	      0.00000000	     -3.52049376	     32.26560651	    -24.74612655	     60.90961301	     -3.17717970	      0.90765515	    131.21039158	     87.52821469	    -12.99664615	     33.31485688	     20.46086675	     -6.05892966	    161.85648986	      0.23488835	      1.33612789	    -25.71718882	    -12.59282301
      2.11666667	     -1.52274987	      3.26728621	     92.30732680	      0.26841817	      0.78525715	      0.65634168	     -3.00753786	     -2.26736240	     -8.57016846	      9.03894194	      0.15775930	     33.06495244	     14.37467762	      0.00000000	     -1.29545235	      0.93166252	      6.45523994	      8.73367307	      0.15243135	     31.61786469	      1.82883014	      0.00000000	     -0.05475505	     -0.34567695	     -2.52622173	     -0.10168560	     -0.45975035	     -2.68411058	     -0.08995707	     -0.84047895	     -2.68411058	     -0.06257955	     -0.84047895	     -2.21044401	     -0.05084554	     -0.70490445	     -2.05255515	     -0.03128704	     -0.53545360	     -1.89466629	     -0.39110984	     -3.91036685	    -14.05008737	      0.00000000	      0.00000000	     -4.02527816	     32.57825665	    -23.91042470	     60.92759324	     -3.42020312	     -0.27668260	    132.08627714	     87.82477628	     -9.04825032	     33.74520490	     20.38882086	     -5.94102178	    158.04213826	      0.25237498	      1.25951589	    -23.36244470	    -14.16083602
